PathFileType	4	(X/Y/Z)	D:\TRACE\spotREDO_2-26-24\spot_Both_Motion_1_9-platform.trc
DataRate	CameraRate	NumFrames	NumMarkers	Units	OrigDataRate	OrigDataStartFrame	OrigNumFrames
100.00	100.00	      36	5	mm	100.00	4376	      7000
Frame#	Time	Left_Front			Right_Front			Left_Aft			Right_Aft			Post			
		X1	Y1	Z1	X2	Y2	Z2	X3	Y3	Z3	X4	Y4	Z4	X5	Y5	Z5	

4376	43.750	-731.69934	16.73878	-570.10394	683.02533	22.65343	-485.31812	-803.09235	-17.67140	648.33112	767.15063	-10.78216	652.09094	-22.25850	657.99042	-953.90839	
4377	43.760	-732.66760	17.30825	-569.97107	682.42792	22.86380	-485.12552	-803.95544	-18.03374	648.21735	766.52997	-10.97481	652.31897	-23.20414	658.45276	-953.33746	
4378	43.770	-733.32928	17.46539	-570.04102	681.57355	23.01446	-485.15933	-804.59473	-18.24372	648.30133	765.88422	-11.27027	652.45624	-23.91428	658.90753	-952.93634	
4379	43.780	-734.08484	17.88277	-570.04791	680.60114	23.44743	-485.15109	-805.26489	-18.55499	648.35010	765.14209	-11.52499	652.41052	-24.62397	659.43011	-952.70490	
4380	43.790	-734.83514	18.14451	-569.90399	680.00073	23.80289	-485.02744	-806.13739	-18.93258	648.41400	764.00110	-11.94951	652.46783	-25.48952	659.80719	-952.66528	
4381	43.800	-735.52472	18.43162	-569.83215	679.37451	23.91287	-484.90518	-806.83264	-19.15302	648.49536	763.38434	-12.18658	652.51868	-26.13007	660.24243	-952.51141	
4382	43.810	-736.30109	18.59735	-569.66058	678.54858	24.09059	-484.84851	-807.41431	-19.32677	648.66620	762.99548	-12.21220	652.66132	-26.93885	660.60132	-952.50037	
4383	43.820	-736.96332	18.89250	-569.31744	677.61279	24.52914	-484.99194	-808.25665	-19.70513	648.71124	762.14056	-12.76294	652.79938	-27.21216	661.14929	-952.35608	
4384	43.830	-737.55750	19.02996	-569.30658	677.25250	24.61077	-484.70688	-808.68719	-19.92502	649.04285	761.40863	-12.74570	653.08813	-27.80924	661.61261	-952.08264	
4385	43.840	-738.30750	19.25707	-569.21912	676.63751	24.78877	-484.59607	-809.54291	-20.35736	648.92279	760.69397	-13.45166	652.90344	-28.80473	661.93420	-951.87543	
4386	43.850	-739.06494	19.65361	-569.21588	675.82764	25.12236	-484.59039	-810.11145	-20.71140	648.97040	760.33984	-13.72740	652.80573	-29.36356	662.43628	-951.37463	
4387	43.860	-739.84241	20.07311	-569.17700	674.99988	25.33242	-484.68005	-810.68024	-20.93003	648.99042	759.50800	-13.82679	652.95514	-30.09398	663.08527	-950.58856	
4388	43.870	-740.23138	20.29424	-569.08740	674.65460	25.45729	-484.38373	-811.40265	-21.42751	648.87061	758.82306	-14.31908	653.22351	-30.59462	663.55811	-949.72784	
4389	43.880	-740.52637	20.53827	-568.95837	674.17743	25.59551	-484.28979	-811.86963	-21.55347	649.05487	758.58954	-14.54660	653.24231	-31.09043	663.88696	-949.15784	
4390	43.890	-741.14526	20.68818	-568.87964	673.48389	26.01510	-484.32715	-812.36768	-21.87312	649.21088	758.05054	-14.94497	653.14526	-31.83603	664.19348	-948.68512	
4391	43.900	-741.82660	21.01123	-568.83575	673.07214	26.14112	-484.19235	-812.86957	-21.97954	649.28882	757.48053	-15.05319	653.06097	-32.30494	664.73669	-947.91333	
4392	43.910	-742.28967	21.28283	-568.81616	672.56012	26.31329	-484.05887	-813.62518	-22.39785	649.27545	756.69086	-15.39789	652.98566	-32.72834	665.14569	-947.84381	
4393	43.920	-743.01984	21.75527	-568.72479	672.01727	26.52569	-483.94241	-813.88751	-22.45799	649.53149	756.35199	-15.55324	653.04120	-33.22226	665.53320	-947.53473	
4394	43.930	-743.38116	21.94136	-568.62115	671.53259	26.55897	-483.88940	-814.48602	-22.67325	649.52344	755.85468	-15.76276	653.19476	-33.69529	665.75812	-947.44434	
4395	43.940	-743.81366	22.00377	-568.46265	671.01648	26.98131	-483.97086	-814.96240	-22.92271	649.58276	755.56073	-16.10190	653.32251	-34.34933	666.04205	-947.42719	
4396	43.950	-744.04382	21.90779	-568.56158	670.68427	27.13181	-483.91833	-815.38867	-23.13017	649.65710	755.28394	-16.74125	653.27191	-34.86164	666.36157	-947.45032	
4397	43.960	-744.77490	22.20020	-568.47009	670.28845	27.21416	-483.80502	-815.80566	-23.27853	649.56500	754.47510	-16.53920	653.32098	-35.08090	666.86621	-947.48999	
4398	43.970	-745.13379	22.30929	-568.39026	670.09052	27.28540	-483.67038	-816.14862	-23.39227	649.57355	754.10876	-16.67945	653.40338	-35.79918	666.98700	-947.47467	
4399	43.980	-745.27490	22.41717	-568.40381	669.76782	27.46958	-483.62585	-816.38306	-23.29890	649.71625	753.92621	-16.78810	653.40149	-36.01178	667.32544	-947.38098	
4400	43.990	-745.51807	22.49441	-568.32538	669.19983	27.66446	-483.56024	-816.85785	-23.72675	649.56775	753.64697	-16.82888	653.40601	-36.41357	667.59680	-947.09497	
4401	44.000	-745.95483	22.83365	-568.16962	668.84442	27.75071	-483.53821	-817.16742	-23.96763	649.65912	753.38208	-16.94442	653.57794	-36.63815	667.84729	-946.61414	
4402	44.010	-746.39691	23.09087	-568.10236	668.51141	28.02986	-483.62253	-817.38501	-24.20185	649.65540	753.13794	-17.20341	653.63660	-36.98904	668.14807	-946.10394	
4403	44.020	-746.64679	23.31323	-568.08722	668.27899	28.09148	-483.56812	-817.55365	-24.33375	649.70782	752.90710	-17.38420	653.63495	-37.07743	668.38312	-945.66235	
4404	44.030	-746.81738	23.46105	-567.96246	668.10339	28.24532	-483.56256	-817.72308	-24.45119	649.77673	752.59265	-17.79483	653.70776	-37.05793	668.45905	-945.32556	
4405	44.040	-746.98669	23.63067	-567.91724	667.98529	28.31993	-483.57358	-817.76239	-24.62069	649.85150	752.31708	-17.98572	653.72107	-37.72023	668.79791	-944.84229	
4406	44.050	-747.14282	23.83694	-567.87250	667.83221	28.31818	-483.41525	-817.90137	-24.76308	649.94714	752.07965	-18.10717	653.71265	-37.92101	669.10583	-944.45013	
4407	44.060	-747.18719	23.93350	-567.85284	667.72479	28.41125	-483.43195	-817.88861	-24.93644	650.00775	752.13074	-18.19355	653.75507	-37.97525	669.26624	-944.27167	
4408	44.070	-747.26202	24.00581	-567.84875	667.60303	28.39015	-483.46188	-817.95172	-25.14100	650.09363	752.02380	-18.29660	653.80518	-38.07729	669.39404	-944.16394	
4409	44.080	-747.29108	24.01393	-567.83344	667.53864	28.48569	-483.58420	-818.01025	-25.35190	650.05115	751.95337	-18.30089	653.78345	-38.10649	669.42926	-944.28137	
4410	44.090	-747.19122	23.87553	-567.79773	667.94824	28.70892	-483.07486	-818.08917	-25.55582	650.04041	751.94586	-18.27687	653.81012	-38.16859	669.56329	-944.51270	
4411	44.100	-747.24243	24.09530	-568.01538	667.91205	28.71087	-483.07480	-818.10083	-25.55718	650.05658	751.99005	-18.34128	653.77246	-38.04427	669.71411	-944.76361	
